<svg width="143" height="140" viewBox="0 0 143 140" fill="none" xmlns="http://www.w3.org/2000/svg">
<path d="M11.2692 31.4423C11.2692 20.4655 20.4115 11.5352 31.6488 11.5352H111.136C122.374 11.5352 131.516 20.4655 131.516 31.4423V109.087C131.516 120.063 122.374 128.994 111.136 128.994H31.6488C20.4115 128.994 11.2692 120.063 11.2692 109.087V31.4423ZM31.6488 140H111.136C128.587 140 142.785 126.133 142.785 109.087V31.4423C142.785 14.3956 128.587 0.527313 111.136 0.527313H31.6488C14.1975 0.527313 0 14.3956 0 31.4423V109.087C0 126.133 14.1975 140 31.6488 140Z" fill="#121113"/>
</svg>
